<?xml version="1.0" encoding="utf-8"?>
<!-- Generator: Adobe Illustrator 24.0.0, SVG Export Plug-In . SVG Version: 6.00 Build 0)  -->
<svg version="1.1" id="Layer_1" xmlns="http://www.w3.org/2000/svg" xmlns:xlink="http://www.w3.org/1999/xlink" x="0px" y="0px"
	 viewBox="0 0 462 163" style="enable-background:new 0 0 462 163;" xml:space="preserve">
<style type="text/css">
	.st0{fill:#0038B8;}
	.st1{fill:#5F8CF4;}
	.st2{fill:#0A2B74;}
</style>
<g>
	<g transform="translate(14.399283, 212.549684)">
		<g>
			<path class="st0" d="M-4.8-196.7h37.1c10.4,0,18.7,2.7,25.1,8c6.4,5.3,9.6,13.1,9.6,23.3c0,10.2-3.2,18.2-9.7,24
				c-6.5,5.8-14.8,8.7-25,8.7H18.4V-95H-4.8V-196.7z M18.4-151.2h6.5c5.2,0,9.4-1,12.8-3.1c3.3-2.1,5-5.5,5-10.3
				c0-4.8-1.7-8.3-5-10.4c-3.3-2.1-7.6-3.1-12.8-3.1h-6.5V-151.2z"/>
		</g>
	</g>
</g>
<g>
	<g transform="translate(67.269156, 212.549684)">
		<g>
			<path class="st0" d="M18.8-102.6c-7-6.2-10.5-14.3-10.5-24c0-9.8,3.7-17.8,11-24.1c7.3-6.3,16.4-9.4,27.1-9.4
				c10.6,0,19.5,3.2,26.8,9.5c7.3,6.3,10.9,14.3,10.9,24c0,9.7-3.6,17.7-10.7,24c-7.1,6.3-16.1,9.4-27.1,9.4
				C35-93.2,25.8-96.3,18.8-102.6z M35.7-137.3c-2.8,2.8-4.3,6.4-4.3,10.7c0,4.3,1.4,7.9,4.1,10.6c2.7,2.8,6.3,4.1,10.8,4.1
				c4.3,0,7.8-1.4,10.5-4.2c2.8-2.8,4.1-6.3,4.1-10.6c0-4.3-1.4-7.9-4.3-10.7c-2.8-2.8-6.3-4.2-10.4-4.2
				C42-141.5,38.5-140.1,35.7-137.3z"/>
		</g>
	</g>
</g>
<g>
	<g transform="translate(119.676864, 212.549684)">
		<g>
			<path class="st0" d="M30.3-95v-106h21.8v106H30.3z"/>
		</g>
	</g>
</g>
<g>
	<g transform="translate(138.438486, 212.549684)">
		<g>
			<path class="st0" d="M38.6-193.5c2.6-2.6,5.6-3.8,9.1-3.8c3.5,0,6.6,1.3,9.1,3.8c2.6,2.5,3.8,5.6,3.8,9.1c0,3.5-1.3,6.6-3.8,9.1
				c-2.5,2.5-5.6,3.8-9.1,3.8c-3.5,0-6.6-1.3-9.1-3.8c-2.5-2.5-3.8-5.6-3.8-9.1C34.8-187.9,36.1-191,38.6-193.5z M36.5-158.3V-95
				h21.8v-63.2H36.5z"/>
		</g>
	</g>
</g>
<g>
	<g transform="translate(157.662293, 212.549684)">
		<g>
			<path class="st0" d="M36.5-176.4v-20.4H108v20.4H83.9V-95H60.7v-81.4H36.5z"/>
		</g>
	</g>
</g>
<g>
	<g transform="translate(204.06178, 212.549684)">
		<g>
			<path class="st0" d="M62.7-102.9c-5.9-6.5-8.9-14.4-8.9-23.7c0-9.4,3-17.3,8.9-23.8c5.9-6.5,13.4-9.8,22.6-9.8
				c8.4,0,15.3,2.6,20.7,7.9v-6h21.8V-95h-21.6v-7.1H106c-5.4,6-12.3,9-20.7,9C76.2-93.2,68.6-96.4,62.7-102.9z M81.3-137.3
				c-2.8,2.8-4.2,6.4-4.2,10.7c0,4.3,1.4,7.9,4.1,10.6c2.7,2.8,6.3,4.1,10.8,4.1c4.3,0,7.8-1.4,10.5-4.2c2.8-2.8,4.1-6.3,4.1-10.6
				c0-4.3-1.4-7.9-4.3-10.7c-2.8-2.8-6.3-4.2-10.4-4.2C87.6-141.5,84.1-140.1,81.3-137.3z"/>
		</g>
	</g>
</g>
<g>
	<g transform="translate(258.503034, 212.549684)">
		<g>
			<path class="st0" d="M76.6-95v-106h21.8v106H76.6z"/>
		</g>
	</g>
</g>
<g>
	<g transform="translate(277.264646, 212.549684)">
		<g>
			<path class="st0" d="M155-158.3L125-128.1l33,33h-28.1l-25.3-25.3V-95H82.8v-106h21.8v64.9l22.1-22.1H155z"/>
		</g>
	</g>
</g>
<g>
	<g transform="translate(328.303293, 212.549684)">
		<g>
			<path class="st1" d="M113.9-121.4c3.9,0,7.3,1.4,10,4.1s4.1,6.1,4.1,10c0,3.9-1.4,7.2-4.1,9.9c-2.8,2.8-6.1,4.1-10,4.1
				c-3.9,0-7.2-1.4-9.9-4.1c-2.8-2.8-4.1-6.1-4.1-9.9c0-3.9,1.4-7.3,4.1-10S110-121.4,113.9-121.4z"/>
		</g>
	</g>
</g>
<g>
	<g transform="translate(114.937158, 237.60095)">
		<g>
			<path class="st2" d="M35.7-103c0.4,0.2,0.6,0.6,0.6,1c0,0.3-0.1,0.6-0.3,0.8c-0.2,0.3-0.5,0.4-0.8,0.4c-0.2,0-0.5-0.1-0.7-0.2
				c-1-0.6-2.1-0.9-3.3-0.9c-1.2,0-2.3,0.3-3.3,0.8c-0.9,0.5-1.7,1.3-2.2,2.3c-0.5,1-0.8,2.1-0.8,3.4c0,1.4,0.3,2.6,0.8,3.6
				c0.5,1,1.3,1.7,2.2,2.3c1,0.5,2,0.8,3.2,0.8c1.2,0,2.3-0.3,3.3-0.9c0.2-0.1,0.4-0.1,0.6-0.1c0.4,0,0.7,0.1,0.9,0.4
				c0.2,0.2,0.3,0.5,0.3,0.8c0,0.2-0.1,0.4-0.2,0.6c-0.1,0.2-0.3,0.3-0.4,0.4c-0.6,0.4-1.4,0.7-2.2,0.9c-0.8,0.2-1.6,0.3-2.4,0.3
				c-1.6,0-3.1-0.4-4.4-1.1c-1.3-0.7-2.4-1.8-3.2-3.1c-0.8-1.4-1.2-2.9-1.2-4.8c0-1.7,0.4-3.2,1.1-4.5c0.8-1.3,1.8-2.4,3.2-3.2
				c1.3-0.8,2.9-1.2,4.5-1.2C32.8-104.2,34.3-103.8,35.7-103z"/>
		</g>
	</g>
</g>
<g>
	<g transform="translate(138.934518, 237.60095)">
		<g>
			<path class="st2" d="M43.4-93.2c0,1.3-0.3,2.5-0.9,3.5c-0.6,1-1.4,1.8-2.4,2.4c-1,0.6-2.1,0.9-3.3,0.9c-1.2,0-2.3-0.3-3.3-0.9
				c-1-0.6-1.8-1.4-2.4-2.4c-0.6-1-0.9-2.2-0.9-3.5c0-1.3,0.3-2.5,0.9-3.5c0.6-1,1.4-1.8,2.4-2.4c1-0.6,2.1-0.9,3.3-0.9
				c1.2,0,2.3,0.3,3.3,0.9c1,0.6,1.8,1.4,2.4,2.4C43.1-95.6,43.4-94.5,43.4-93.2z M41-93.2c0-0.9-0.2-1.7-0.6-2.4
				c-0.4-0.7-0.9-1.3-1.5-1.6c-0.6-0.4-1.3-0.6-2.1-0.6c-0.8,0-1.5,0.2-2.1,0.6c-0.6,0.4-1.1,0.9-1.5,1.6c-0.4,0.7-0.5,1.5-0.5,2.4
				c0,0.9,0.2,1.7,0.5,2.4c0.4,0.7,0.9,1.2,1.5,1.6c0.6,0.4,1.3,0.6,2.1,0.6c0.8,0,1.5-0.2,2.1-0.6c0.6-0.4,1.1-0.9,1.5-1.6
				C40.8-91.5,41-92.3,41-93.2z"/>
		</g>
	</g>
</g>
<g>
	<g transform="translate(162.336781, 237.60095)">
		<g>
			<path class="st2" d="M45.5-100c3,0,4.5,1.8,4.5,5.4v6.8c0,0.3-0.1,0.6-0.3,0.9c-0.2,0.2-0.5,0.3-0.9,0.3c-0.3,0-0.6-0.1-0.8-0.3
				c-0.2-0.2-0.3-0.5-0.3-0.9v-6.7c0-1-0.2-1.8-0.7-2.3c-0.4-0.6-1.2-0.9-2.2-0.9c-0.7,0-1.3,0.1-1.8,0.4c-0.5,0.3-0.9,0.7-1.2,1.2
				c-0.3,0.5-0.5,1-0.5,1.6v6.7c0,0.3-0.1,0.6-0.3,0.9c-0.2,0.2-0.5,0.3-0.9,0.3c-0.3,0-0.6-0.1-0.9-0.3c-0.2-0.2-0.3-0.5-0.3-0.9
				v-10.6c0-0.3,0.1-0.6,0.3-0.8c0.2-0.2,0.5-0.4,0.8-0.4c0.3,0,0.6,0.1,0.9,0.4c0.2,0.2,0.3,0.5,0.3,0.8v0.9c0.4-0.7,1-1.2,1.8-1.7
				C43.8-99.8,44.6-100,45.5-100z"/>
		</g>
	</g>
</g>
<g>
	<g transform="translate(185.422889, 237.60095)">
		<g>
			<path class="st2" d="M53.2-100c3,0,4.5,1.8,4.5,5.4v6.8c0,0.3-0.1,0.6-0.3,0.9c-0.2,0.2-0.5,0.3-0.9,0.3c-0.3,0-0.6-0.1-0.8-0.3
				c-0.2-0.2-0.3-0.5-0.3-0.9v-6.7c0-1-0.2-1.8-0.7-2.3c-0.4-0.6-1.2-0.9-2.2-0.9c-0.7,0-1.3,0.1-1.8,0.4c-0.5,0.3-0.9,0.7-1.2,1.2
				c-0.3,0.5-0.5,1-0.5,1.6v6.7c0,0.3-0.1,0.6-0.3,0.9c-0.2,0.2-0.5,0.3-0.9,0.3c-0.3,0-0.6-0.1-0.9-0.3c-0.2-0.2-0.3-0.5-0.3-0.9
				v-10.6c0-0.3,0.1-0.6,0.3-0.8c0.2-0.2,0.5-0.4,0.8-0.4c0.3,0,0.6,0.1,0.9,0.4c0.2,0.2,0.3,0.5,0.3,0.8v0.9c0.4-0.7,1-1.2,1.8-1.7
				C51.5-99.8,52.3-100,53.2-100z"/>
		</g>
	</g>
</g>
<g>
	<g transform="translate(208.508998, 237.60095)">
		<g>
			<path class="st2" d="M65.7-93.7c0,0.3-0.1,0.6-0.4,0.8c-0.2,0.2-0.5,0.3-0.8,0.3h-8.7c0.1,1.2,0.6,2.2,1.4,2.9
				c0.8,0.7,1.8,1.1,2.9,1.1c0.8,0,1.4-0.1,1.9-0.3c0.5-0.2,0.9-0.5,1.3-0.9c0.2-0.2,0.5-0.2,0.7-0.2c0.3,0,0.5,0.1,0.7,0.3
				c0.2,0.2,0.3,0.4,0.3,0.7c0,0.3-0.2,0.7-0.5,1c-0.5,0.5-1.1,0.9-1.9,1.2c-0.8,0.3-1.6,0.5-2.4,0.5c-1.3,0-2.5-0.3-3.5-0.8
				c-1-0.6-1.8-1.4-2.4-2.4c-0.6-1-0.8-2.2-0.8-3.4c0-1.4,0.3-2.6,0.9-3.6c0.6-1.1,1.3-1.9,2.3-2.4c0.9-0.6,1.9-0.9,3-0.9
				c1.1,0,2,0.3,3,0.8c0.9,0.5,1.7,1.3,2.2,2.2C65.4-96,65.7-94.9,65.7-93.7z M59.6-97.8c-0.9,0-1.7,0.3-2.4,0.8
				c-0.7,0.5-1.1,1.3-1.3,2.4h7.3v-0.2c-0.1-0.9-0.5-1.6-1.2-2.2C61.3-97.5,60.5-97.8,59.6-97.8z"/>
		</g>
	</g>
</g>
<g>
	<g transform="translate(231.241762, 237.60095)">
		<g>
			<path class="st2" d="M67.5-100c1.3,0,2.4,0.2,3.2,0.6c0.9,0.4,1.3,0.9,1.3,1.6c0,0.3-0.1,0.5-0.3,0.8c-0.2,0.2-0.4,0.3-0.7,0.3
				c-0.2,0-0.4,0-0.5-0.1c-0.1-0.1-0.3-0.2-0.5-0.3c-0.1-0.1-0.3-0.2-0.5-0.4c-0.2-0.1-0.5-0.2-0.8-0.2c-0.4-0.1-0.7-0.1-1-0.1
				c-0.9,0-1.6,0.2-2.3,0.6c-0.7,0.4-1.2,1-1.5,1.7c-0.4,0.7-0.5,1.5-0.5,2.3c0,0.9,0.2,1.7,0.5,2.4c0.4,0.7,0.9,1.2,1.5,1.6
				c0.7,0.4,1.4,0.6,2.2,0.6c0.9,0,1.6-0.1,2.1-0.4c0.1-0.1,0.3-0.2,0.5-0.3c0.2-0.1,0.3-0.2,0.4-0.3c0.1-0.1,0.3-0.1,0.5-0.1
				c0.3,0,0.6,0.1,0.8,0.3c0.2,0.2,0.3,0.5,0.3,0.8c0,0.3-0.2,0.7-0.7,1c-0.4,0.3-1,0.6-1.8,0.8c-0.7,0.2-1.5,0.3-2.4,0.3
				c-1.2,0-2.4-0.3-3.3-0.9c-1-0.6-1.7-1.4-2.2-2.4c-0.5-1-0.8-2.2-0.8-3.5c0-1.3,0.3-2.4,0.8-3.5c0.6-1,1.3-1.9,2.3-2.4
				C65.1-99.7,66.2-100,67.5-100z"/>
		</g>
	</g>
</g>
<g>
	<g transform="translate(252.93311, 237.60095)">
		<g>
			<path class="st2" d="M72.6-97.4v7.4c0,0.8,0.4,1.2,1.1,1.2c0.1,0,0.3,0,0.5-0.1c0.2-0.1,0.4-0.1,0.5-0.1c0.2,0,0.4,0.1,0.5,0.3
				c0.2,0.2,0.2,0.4,0.2,0.7c0,0.3-0.2,0.6-0.6,0.9c-0.4,0.2-0.8,0.4-1.3,0.4c-0.6,0-1.1-0.1-1.5-0.2c-0.4-0.1-0.8-0.4-1.2-0.9
				c-0.3-0.5-0.5-1.2-0.5-2.1v-7.5h-1.5c-0.3,0-0.6-0.1-0.8-0.3c-0.2-0.2-0.3-0.5-0.3-0.8c0-0.3,0.1-0.6,0.3-0.8
				c0.2-0.2,0.5-0.3,0.8-0.3h1.5v-2.1c0-0.3,0.1-0.6,0.3-0.8c0.2-0.2,0.5-0.4,0.9-0.4c0.3,0,0.6,0.1,0.8,0.4
				c0.2,0.2,0.3,0.5,0.3,0.8v2.1h2.1c0.3,0,0.6,0.1,0.8,0.3c0.2,0.2,0.3,0.5,0.3,0.8c0,0.3-0.1,0.6-0.3,0.8
				c-0.2,0.2-0.5,0.3-0.8,0.3H72.6z"/>
		</g>
	</g>
</g>
</svg>
