<svg xmlns="http://www.w3.org/2000/svg" xmlns:xlink="http://www.w3.org/1999/xlink" width="500" zoomAndPan="magnify" viewBox="0 0 375 374.999991" height="500" preserveAspectRatio="xMidYMid meet" version="1.0"><defs><clipPath id="90fd1f754d"><path d="M 3.371094 2 L 371.53125 2 L 371.53125 374.621094 L 3.371094 374.621094 Z M 3.371094 2 " clip-rule="nonzero"/></clipPath></defs><g clip-path="url(#90fd1f754d)"><path fill="#666666" d="M 167.054688 9.804688 C 177.238281 -0.378906 193.746094 -0.378906 203.929688 9.804688 L 364.082031 169.957031 C 369.171875 175.046875 371.71875 181.726562 371.71875 188.40625 C 371.71875 195.0625 369.171875 201.742188 364.082031 206.832031 L 203.929688 366.984375 C 193.746094 377.167969 177.238281 377.167969 167.054688 366.984375 C 156.871094 356.800781 156.871094 340.292969 167.054688 330.085938 L 308.757812 188.40625 L 167.054688 46.703125 C 156.871094 36.496094 156.871094 19.988281 167.054688 9.804688 Z M 208.035156 206.832031 C 213.128906 201.742188 215.675781 195.0625 215.675781 188.40625 C 215.675781 181.726562 213.128906 175.046875 208.035156 169.957031 L 47.910156 9.804688 C 37.703125 -0.378906 21.191406 -0.378906 11.007812 9.804688 C 0.828125 19.988281 0.828125 36.496094 11.007812 46.703125 L 152.710938 188.40625 L 11.007812 330.085938 C 0.828125 340.292969 0.828125 356.800781 11.007812 366.984375 C 21.191406 377.167969 37.703125 377.167969 47.910156 366.984375 Z M 208.035156 206.832031 " fill-opacity="1" fill-rule="nonzero"/></g></svg>