<svg xmlns="http://www.w3.org/2000/svg" xmlns:xlink="http://www.w3.org/1999/xlink" width="500" zoomAndPan="magnify" viewBox="0 0 375 374.999991" height="500" preserveAspectRatio="xMidYMid meet" version="1.0"><defs><clipPath id="947cf6c16e"><path d="M 3.46875 0.378906 L 371.628906 0.378906 L 371.628906 373 L 3.46875 373 Z M 3.46875 0.378906 " clip-rule="nonzero"/></clipPath></defs><g clip-path="url(#947cf6c16e)"><path fill="#666666" d="M 207.945312 365.195312 C 197.761719 375.378906 181.253906 375.378906 171.070312 365.195312 L 10.917969 205.042969 C 5.828125 199.953125 3.28125 193.273438 3.28125 186.59375 C 3.28125 179.9375 5.828125 173.257812 10.917969 168.167969 L 171.070312 8.015625 C 181.253906 -2.167969 197.761719 -2.167969 207.945312 8.015625 C 218.128906 18.199219 218.128906 34.707031 207.945312 44.914062 L 66.242188 186.59375 L 207.945312 328.296875 C 218.128906 338.503906 218.128906 355.011719 207.945312 365.195312 Z M 166.964844 168.167969 C 161.871094 173.257812 159.324219 179.9375 159.324219 186.59375 C 159.324219 193.273438 161.871094 199.953125 166.964844 205.042969 L 327.089844 365.195312 C 337.296875 375.378906 353.808594 375.378906 363.992188 365.195312 C 374.171875 355.011719 374.171875 338.503906 363.992188 328.296875 L 222.289062 186.59375 L 363.992188 44.914062 C 374.171875 34.707031 374.171875 18.199219 363.992188 8.015625 C 353.808594 -2.167969 337.296875 -2.167969 327.089844 8.015625 Z M 166.964844 168.167969 " fill-opacity="1" fill-rule="nonzero"/></g></svg>